<svg viewBox="27 0 1025.9999999999998 1079.9999999999998" fill="none" xmlns="http://www.w3.org/2000/svg" xmlns:xlink="http://www.w3.org/1999/xlink" overflow="visible" width="1025.9999999999998px" height="1079.9999999999998px"><g id="Master/Vero/Monster"><g id="Group"><g id="Layer 1"><path id="Vector" d="M1043.17 573.41C1052.44 619.8 954.71 551.7 942.8 538.34L941.8 537.06C942.09 537.518 942.425 537.947 942.8 538.34C955.92 555.74 1094.47 746.52 963.14 875.94C952.62 807.94 904.44 708.94 871.49 647.12C871.49 647.12 857.77 452.12 922.78 435.47C987.79 418.82 1033.54 525.25 1043.17 573.41Z" fill="#9DD7EE"/><path id="Vector_2" d="M963.14 875.94C963.806 880.14 964.31 884.217 964.65 888.17C964.654 888.21 964.654 888.25 964.65 888.29C965.22 892.71 994.74 1046.5 964.51 1015.9C952.3 1003.52 943.23 995.16 936.73 989.58C926.87 981.1 922.939 979.01 922.939 979.01C925.205 984.285 927.1 989.711 928.609 995.25C932.189 1008.09 935.27 1026.4 930.15 1041.99C930.15 1041.99 908.06 1030.12 893.15 1017.12C888.48 1013.06 884.52 1008.9 882.15 1004.95L882.7 1022.77L883.929 1062.47C883.929 1062.47 839.31 1034.17 817.16 1003.9C814.44 998.49 811.25 992.9 807.63 987.13C810.063 993.111 813.267 998.748 817.16 1003.9C835.95 1041.17 832.79 1067.48 795.16 1033.66L793.16 1031.85C776.69 1017.38 758.7 1005.1 750.27 987.13C747.753 981.806 746.186 976.083 745.64 970.22C740.7 919.59 736.28 856.59 749.41 832.16C750.417 830.26 751.306 828.3 752.07 826.29C765.7 791 760.7 711.86 760.7 711.86C798.87 679.31 829.89 639.06 839.7 590.09C839.7 590.09 853.26 612.94 871.48 647.09C904.44 708.98 952.62 807.98 963.14 875.94Z" fill="#9DD7EE"/><path id="Vector_3" d="M368.509 553.59C369.385 553.641 370.263 553.641 371.139 553.59C388.359 552.87 414.719 542.88 431.609 535.71C432.551 530.658 432.92 525.515 432.709 520.38C429.299 462.22 383.699 515.18 368.509 553.59ZM609.419 532.85C630.226 519.741 652.783 509.641 676.419 502.85C678.069 496.089 678.795 489.136 678.579 482.18C674.699 417.4 618.699 490.22 610.479 527.59C610.073 529.39 609.719 531.147 609.419 532.86V532.85ZM557.029 333.25C555.689 335.4 554.449 337.44 553.349 339.35C554.699 337.28 555.909 335.24 557.029 333.26V333.25ZM607.359 336.94C608.059 336.72 653.209 322.73 667.539 351.39L697.069 366.22C698.357 367.101 699.756 367.807 701.229 368.32L697.069 366.22C689.899 361.34 681.579 347.33 744.599 317.68C826.459 279.16 857.769 315.27 857.769 315.27C857.769 315.27 852.949 372.27 824.049 377.47C824.049 377.47 867.399 386.33 869.799 409.8C869.799 409.8 874.619 429.23 845.729 431.25C845.729 431.25 884.859 450.11 870.099 462.15C855.339 474.19 807.199 451.34 807.199 451.34C823.059 494.71 849.199 542.55 839.709 590.08C829.929 639.08 798.909 679.3 760.709 711.85C734.709 734.01 705.429 752.59 677.249 767.93C602.699 808.59 505.919 832.39 427.439 788.28C417.03 782.376 407.109 775.651 397.769 768.17C358.429 736.86 323.919 690.17 306.309 640.08C306.23 639.181 305.931 638.316 305.439 637.56C292.889 600.63 289.629 561.98 300.439 526.45C304.096 514.524 311.486 504.087 321.521 496.677C331.556 489.267 343.705 485.275 356.179 485.29C356.179 485.29 338.579 478.88 338.579 467.29C338.579 462.54 341.579 456.91 349.879 450.5C349.879 450.5 306.319 462.16 293.879 450.5C287.709 444.73 296.609 434.5 306.699 427.18C316.779 427.56 325.109 425.76 326.559 421.23C328.499 415.15 316.979 419.7 306.699 427.18C289.969 426.56 268.389 419.94 265.389 409.81C260.569 393.56 294.279 365.81 323.179 353.81C352.079 341.81 388.179 377.48 388.179 377.48C388.179 377.48 436.339 361.2 441.179 368.34C446.019 375.48 448.399 324.91 477.289 332.14C506.179 339.37 441.179 303.93 472.469 284.32C503.759 264.71 523.039 332.14 523.039 332.14C523.039 332.14 537.849 279.93 553.319 280.75C567.899 281.52 575.469 300.81 557.009 333.25C574.899 304.83 613.009 258.35 625.859 269.88C641.859 284.24 633.959 316.12 607.359 336.95V336.94ZM667.539 418.14C694.029 419.87 672.359 409.14 654.639 401.62C637.109 394.15 607.959 401.47 607.359 401.62C607.969 401.01 635.739 373.18 590.489 383.16C544.699 393.26 542.329 433.39 542.329 433.39C549.329 434.63 573.079 430.61 598.569 426.39C597.057 431.426 596.308 436.661 596.349 441.92C596.349 458.19 602.959 471.39 611.119 471.39C619.279 471.39 625.889 458.19 625.889 441.92C625.987 435.297 624.749 428.723 622.249 422.59C640.879 419.67 657.969 417.52 667.539 418.15V418.14ZM569.199 493.99C569.199 488.9 559.529 484.78 547.609 484.78C535.689 484.78 526.019 488.9 526.019 493.99C526.019 499.08 535.689 503.2 547.609 503.2C559.529 503.2 569.199 499.08 569.199 493.99ZM491.279 493.99C491.279 488.9 481.619 484.78 469.699 484.78C457.779 484.78 448.099 488.9 448.099 493.99C448.099 499.08 457.769 503.2 469.699 503.2C481.629 503.2 491.279 499.08 491.279 493.99ZM462.489 431.4C474.309 433.13 483.489 434.09 487.489 433.4C487.489 433.4 485.079 393.27 439.329 383.18C394.079 373.18 421.849 401.03 422.469 401.64C421.859 401.49 392.709 394.17 375.179 401.64C357.459 409.2 335.789 419.89 362.279 418.16C376.379 417.24 406.839 422.33 434.439 426.92C433.688 430.606 433.316 434.359 433.329 438.12C433.329 454.4 439.949 467.59 448.099 467.59C456.249 467.59 462.869 454.4 462.869 438.12C462.872 435.875 462.745 433.631 462.489 431.4V431.4Z" fill="#9DD7EE"/><path id="Vector_4" d="M595.889 962.93C610.491 956.011 626.245 951.848 642.359 950.65C679.449 948.25 725.859 968.12 750.179 987.13C758.609 1005.13 776.599 1017.38 793.069 1031.85L792.359 1032.66C772.759 1039.95 694.449 1039.13 645.839 1042.27C581.039 1046.46 527.189 1049.65 526.029 1031.72C525.169 1018.37 554.209 982.22 595.889 962.93Z" fill="#9DD7EE"/><path id="Vector_5" d="M760.7 711.86C760.7 711.86 765.62 791 752.03 826.29C745.68 820.6 726.26 807.29 718.49 803.95C712.39 801.73 706.28 798.95 699.62 798.4C693.529 797.85 687.401 797.85 681.31 798.4C664.7 800.59 650.27 809.5 638.06 820.59C621.41 836.13 611.43 856.11 604.21 877.19C595.89 903.83 592.56 930.47 595.89 958.19V962.89C554.21 982.18 525.17 1018.33 526.04 1031.68C475.04 1036.5 376.19 1021.09 376.19 1021.09C375.12 1020.76 361.13 1020.09 344.79 1008.53C343.399 1006.99 341.738 1005.73 339.89 1004.79V1004.79C330.63 997.15 320.96 985.79 312.71 969.08C307.43 956.969 303.215 944.421 300.11 931.58H299.52C298.52 927.45 297.6 923.14 296.76 918.58C283.19 845.68 343.28 799.02 376.76 779.15C383.557 775.054 390.6 771.38 397.85 768.15C407.189 775.631 417.111 782.356 427.52 788.26C505.92 832.39 602.7 808.59 677.28 767.94C705.46 752.59 734.75 734.02 760.7 711.86Z" fill="#E06FA9"/><g id="Group_2" style="mix-blend-mode:multiply" opacity="0.5"><g id="Vector_6" style="mix-blend-mode:multiply" opacity="0.5"><path d="M752.079 826.29C745.729 820.61 726.299 807.29 718.529 803.95C712.429 801.73 706.329 798.95 699.669 798.4C693.575 797.85 687.444 797.85 681.349 798.4C664.699 800.59 650.279 809.5 638.069 820.59C621.419 836.13 611.429 856.11 604.209 877.2C595.889 903.83 592.559 930.47 595.889 958.2V962.91C554.209 982.19 525.169 1018.34 526.039 1031.7C504.979 1033.7 475.779 1032.23 448.739 1029.83C529.899 1019.51 576.939 927.23 596.199 877.59C608.199 846.59 646.049 809.16 654.409 779.47C669.849 773.34 700.409 753.57 714.519 745.88C742.699 730.59 734.759 734.02 760.699 711.86C760.699 711.86 765.699 791 752.079 826.29Z" fill="#E06FA9"/></g></g><path id="Vector_7" d="M750.19 987.13C725.87 968.13 679.46 948.25 642.37 950.65C626.256 951.848 610.502 956.011 595.9 962.93V958.23C592.57 930.48 595.9 903.84 604.22 877.23C611.44 856.15 621.42 836.17 638.07 820.63C650.28 809.53 664.71 800.63 681.36 798.43C687.451 797.88 693.579 797.88 699.67 798.43C706.33 798.99 712.44 801.76 718.54 803.98C726.3 807.28 745.7 820.59 752.07 826.29C751.306 828.3 750.418 830.261 749.41 832.16C736.28 856.59 740.7 919.59 745.56 970.22C746.107 976.083 747.673 981.806 750.19 987.13V987.13Z" fill="#9DD7EE"/><path id="Vector_8" d="M678.54 482.15C678.756 489.106 678.029 496.059 676.38 502.82C652.744 509.611 630.187 519.711 609.38 532.82C609.68 531.107 610.033 529.337 610.44 527.51C618.7 490.22 674.7 417.4 678.54 482.15Z" fill="white"/><path id="Vector_9" d="M654.64 401.59C672.36 409.15 694.03 419.84 667.54 418.11C657.97 417.48 640.88 419.63 622.25 422.5C614.47 423.7 606.44 425.03 598.57 426.34C573.08 430.57 549.38 434.59 542.33 433.34C542.33 433.34 544.74 393.21 590.49 383.12C635.74 373.12 607.97 400.97 607.36 401.58C607.96 401.48 637.11 394.16 654.64 401.59Z" fill="#4A3993"/><path id="Vector_10" d="M622.249 422.59C624.755 428.735 625.993 435.324 625.889 441.96C625.889 458.23 619.279 471.43 611.119 471.43C602.959 471.43 596.349 458.23 596.349 441.96C596.308 436.701 597.057 431.466 598.569 426.43C606.439 425.07 614.469 423.74 622.249 422.59Z" fill="#4A3993"/><path id="Vector_11" d="M547.609 484.78C559.529 484.78 569.2 488.9 569.2 493.99C569.2 499.08 559.529 503.2 547.609 503.2C535.689 503.2 526.02 499.08 526.02 493.99C526.02 488.9 535.699 484.78 547.609 484.78Z" fill="#4A3993"/><path id="Vector_12" d="M469.7 484.78C481.62 484.78 491.28 488.9 491.28 493.99C491.28 499.08 481.62 503.2 469.7 503.2C457.78 503.2 448.1 499.08 448.1 493.99C448.1 488.9 457.77 484.78 469.7 484.78Z" fill="#4A3993"/><path id="Vector_13" d="M487.49 433.39C483.49 434.09 474.31 433.13 462.49 431.39C454.14 430.16 444.49 428.57 434.44 426.9C406.84 422.31 376.38 417.22 362.28 418.14C335.79 419.87 357.46 409.14 375.18 401.62C392.71 394.15 421.86 401.47 422.47 401.62C421.85 401.01 394.08 373.18 439.33 383.16C485.08 393.26 487.49 433.39 487.49 433.39Z" fill="#4A3993"/><path id="Vector_14" d="M462.489 431.4C462.745 433.628 462.872 435.868 462.869 438.11C462.869 454.39 456.259 467.58 448.099 467.58C439.939 467.58 433.329 454.39 433.329 438.11C433.316 434.349 433.688 430.596 434.439 426.91C444.469 428.59 454.139 430.17 462.489 431.4Z" fill="#4A3993"/><path id="Vector_15" d="M432.7 520.42C432.911 525.555 432.542 530.698 431.6 535.75C414.7 542.92 388.36 552.91 371.14 553.59C370.264 553.641 369.386 553.641 368.51 553.59C383.7 515.18 429.3 462.22 432.7 520.42Z" fill="white"/><path id="Vector_16" d="M397.769 768.17C390.52 771.4 383.477 775.074 376.679 779.17V779.17C373.359 779.17 351.169 779.73 347.839 780.28C334.149 782.45 322.509 789.01 312.019 797.84C294.329 812.73 281.349 833.36 273.089 855.1C232.089 865.46 194.729 842.96 178.929 825.58C217.609 824.58 276.469 766.26 276.469 766.26L223.129 744.59C242.349 742.19 276.439 715.7 276.439 715.7C255.079 696.43 215.939 696.78 215.939 696.78C215.939 696.78 225.569 689.21 266.499 673.71C301.599 660.41 233.999 639.18 214.039 633.39L212.559 632.97L208.699 631.91C208.699 631.91 164.699 631.28 162.699 631.82L149.359 573.41L205.249 587.68C230.508 594.127 252.721 609.195 268.049 630.28C295.499 627.7 303.259 633.87 305.449 637.56C305.739 638.4 306.019 639.24 306.319 640.08C323.919 690.14 358.429 736.86 397.769 768.17Z" fill="#9DD7EE"/><path id="Vector_17" d="M376.7 779.18C343.27 799.05 283.18 845.71 296.7 918.61C297.54 923.13 298.46 927.44 299.46 931.61C291.669 932.166 283.95 933.472 276.41 935.51C269.55 912.51 262.12 889.31 269.41 865.51C270.49 862.01 271.69 858.51 273.01 855.07C281.27 833.33 294.25 812.7 311.94 797.81C322.43 788.98 334.07 782.42 347.76 780.25C351.15 779.74 373.34 779.18 376.7 779.18Z" fill="#9DD7EE"/><path id="Vector_18" d="M344.79 1008.59C348.53 1013.1 347.03 1020.4 303.57 1023.21C238.77 1027.4 184.91 1030.59 183.75 1012.66C182.75 996.97 222.95 949.86 276.44 935.53C283.98 933.492 291.699 932.186 299.49 931.63C302.506 944.557 306.936 957.112 312.7 969.07V969.07C319.23 983.75 328.3 998.55 339.88 1004.78C341.55 1006.19 343.18 1007.43 344.79 1008.59Z" fill="#9DD7EE"/><path id="Vector_19" d="M223.13 744.59L276.44 766.26C276.44 766.26 217.58 824.59 178.9 825.59C178.9 825.59 139.49 811.94 128.28 726.93C115.99 633.76 161.17 630.82 162.69 631.82C162.6 631.82 162.6 631.88 162.69 631.91C162.78 631.94 162.69 631.85 162.69 631.82C164.69 631.28 208.69 631.91 208.69 631.91L212.54 632.98L214.02 633.4C234.02 639.19 301.58 660.4 266.48 673.72C225.55 689.22 215.92 696.79 215.92 696.79C215.92 696.79 255.06 696.44 276.42 715.71C276.44 715.71 242.35 742.2 223.13 744.59Z" fill="#9DD7EE"/><g id="Group_3" style="mix-blend-mode:multiply"><g id="Vector_20" style="mix-blend-mode:multiply"><path d="M391.76 763.23C391.76 763.23 356.04 784.58 321.56 790.73C302.56 794.12 281.64 864.16 247.1 861.29C233.05 860.13 220.77 860.83 187.86 837.54C178.95 831.24 168.02 823.96 164.54 815.54C172.72 823.43 178.91 825.54 178.91 825.54C217.59 824.54 276.44 766.22 276.44 766.22L223.13 744.59C242.35 742.18 276.44 715.69 276.44 715.69C255.08 696.43 215.94 696.78 215.94 696.78C215.94 696.78 225.57 689.2 266.5 673.7C293.27 663.57 260.32 648.81 234.31 639.81C256.66 622.11 221.03 589.35 221.03 589.35C242.73 594.67 273.03 625.35 273.03 625.35C283.32 627.86 294.6 623.53 303.51 631.54C310.36 637.7 312.68 651.9 316.28 664.28C335.84 731.64 391.76 763.23 391.76 763.23Z" fill="#9DD7EE"/></g></g><g id="Group_4" style="mix-blend-mode:multiply"><g id="Vector_21" style="mix-blend-mode:multiply"><path d="M753.5 1042.3C733.24 1040.78 732.23 1013.23 728.05 970.25C722.53 913.36 728.29 839.43 699.66 798.4C691.47 786.65 756.76 813.63 751.29 828.99C746.91 841.28 736.5 898.66 742.61 939.09C748 974.75 761.61 1013.49 786.11 1032.65C795.12 1039.71 766.62 1043.28 753.5 1042.3Z" fill="#9DD7EE"/></g></g><g id="Group_5" style="mix-blend-mode:multiply"><g id="Vector_22" style="mix-blend-mode:multiply"><path d="M1043.79 578.05C1030.69 571.21 982.03 547.55 957.03 526.74C937.96 510.86 922.59 522.08 924.03 546.85C924.03 547.45 924.1 548.05 924.14 548.65C927.316 600.081 918.334 651.537 897.92 698.85V698.85C897.92 698.85 958.05 837.59 959.62 857.73C961.19 877.87 986.87 847.97 986.87 847.97C986.87 847.97 1032.06 752.13 1016.54 697.8C1001.02 643.47 941.82 537.06 941.82 537.06C941.82 537.06 998.06 581.78 1016.72 585.52C1035.38 589.26 1043.79 578.05 1043.79 578.05Z" fill="#9DD7EE"/></g></g><g id="Group_6" style="mix-blend-mode:multiply"><g id="Vector_23" style="mix-blend-mode:multiply"><path d="M452.569 799.1C476.869 803.79 508.259 802.33 531.009 795.52C566.569 784.87 613.629 772.69 646.169 754.41C723.569 710.96 768.919 653.88 804.079 573.41C809.809 560.28 825.719 499.6 817.809 484.78C817.809 484.78 871.049 592.91 811.809 655.78C752.569 718.65 659.269 807.37 569.189 807.48C530.069 807.53 491.089 806.59 452.569 799.1Z" fill="#9DD7EE"/></g></g><path id="Vector_24" d="M541.03 440.77C542.568 441.011 544.124 441.121 545.68 441.1C555.14 441.1 572.34 438.33 597.38 434.17L599.79 433.77C600.761 433.609 601.69 433.259 602.525 432.739C603.36 432.219 604.084 431.539 604.657 430.739C605.229 429.939 605.639 429.034 605.861 428.076C606.084 427.118 606.116 426.125 605.955 425.155C605.794 424.184 605.444 423.255 604.924 422.42C604.404 421.585 603.724 420.861 602.924 420.288C602.124 419.716 601.22 419.306 600.261 419.084C599.303 418.861 598.311 418.829 597.34 418.99L594.92 419.39C579.79 421.9 561.92 424.87 551.44 425.84C554.7 415.06 564.25 396.59 592.1 390.49C600.97 388.49 605.7 388.37 608.1 388.55C606.44 391.388 604.424 394.003 602.1 396.33C600.942 397.489 600.195 398.995 599.975 400.619C599.755 402.242 600.074 403.893 600.882 405.319C601.69 406.744 602.943 407.865 604.449 408.51C605.955 409.155 607.631 409.289 609.22 408.89C618.7 406.54 639.79 403.43 651.74 408.52C653.63 409.33 655.35 410.08 656.93 410.79C648.33 411.31 636.74 412.73 621.14 415.14C619.176 415.444 617.413 416.515 616.239 418.118C615.065 419.722 614.576 421.726 614.88 423.69C615.184 425.654 616.255 427.417 617.859 428.591C619.462 429.765 621.466 430.254 623.43 429.95C637.43 427.78 657.25 424.95 667.09 425.62C673.85 426.07 685.17 426.81 687.21 418.26C689.25 409.71 680.15 404.35 657.62 394.74C647.2 390.3 633.72 390.33 623.06 391.41C624.63 386.11 623.39 382.5 622.4 380.71C617.1 371.03 601.72 373.03 588.91 375.85C562.57 381.67 549.27 396.77 542.75 408.41C538.465 415.956 535.788 424.308 534.89 432.94C534.777 434.77 535.34 436.579 536.472 438.022C537.604 439.465 539.226 440.443 541.03 440.77V440.77Z" fill="#4A3993"/><path id="Vector_25" d="M1049.97 572.05C1045.68 550.61 1036.09 524.18 1024.32 501.36C1013.63 480.63 995.85 452.75 971.89 437.69C955.43 427.33 938.33 424.33 921.06 428.75C890.95 436.46 872.38 476.21 865.85 546.9C863.869 569.66 863.058 592.507 863.42 615.35C856.18 602.35 850.73 592.89 848.21 588.58C854.94 548.86 838.9 509.07 824.7 473.86C823.62 471.18 822.56 468.55 821.52 465.95C824.42 466.95 827.52 468.05 830.77 469.02C852.24 475.53 866.77 475.34 875.23 468.44C879.86 464.66 882.06 459.6 881.42 454.21C880.51 446.49 873.42 439.39 866 433.92C869.013 432.168 871.631 429.812 873.69 427C875.575 424.364 876.912 421.376 877.619 418.213C878.327 415.051 878.392 411.778 877.81 408.59C875.96 392.93 861.39 383.07 849.43 377.54C847.57 376.68 845.73 375.9 843.93 375.19C851.5 367.34 856.38 356.47 859.45 346.96C862.634 336.893 864.775 326.525 865.84 316.02C865.932 314.94 865.806 313.853 865.471 312.823C865.136 311.792 864.599 310.839 863.89 310.02C862.45 308.35 827.57 269.73 741.15 310.4C700.75 329.4 688.82 342.4 685.4 351.4L673.4 345.4C663.98 329.46 646.18 324.96 629.65 325.32C637.24 314.61 641.76 302.78 642.14 291.64C642.52 280.5 638.66 270.64 631.27 263.96C629.533 262.411 627.47 261.274 625.233 260.634C622.996 259.993 620.643 259.865 618.35 260.26C605.82 262 589.53 277.65 575.62 294.26C575.138 290.848 574.058 287.547 572.43 284.51C570.61 281.091 567.928 278.207 564.649 276.144C561.371 274.081 557.61 272.911 553.74 272.75C543.32 272.2 534.16 281.81 524.94 302.99C524.14 304.83 523.38 306.66 522.66 308.46C516.42 295.1 506.66 279.65 493.31 274.54C485.06 271.37 476.37 272.41 468.16 277.54C460.95 282.06 456.8 287.87 455.83 294.8C454.33 305.53 461.16 315.7 467.83 323.63C449.59 326.3 442.01 348.14 438.46 358.4C438.417 358.504 438.38 358.611 438.35 358.72C432.35 358 423.62 359.26 410.92 362.45C402.76 364.5 394.92 366.89 390.2 368.39C379.52 359.05 347.99 334.78 320.08 346.39C304.021 353.237 289.194 362.672 276.19 374.32C260.87 388.32 254.46 401.42 257.64 412.17C260.9 423.17 274.93 429.75 288.9 432.96C286.06 436.72 284.05 440.82 283.79 445.05C283.65 447.174 283.987 449.303 284.778 451.279C285.569 453.255 286.793 455.029 288.36 456.47C297.47 465.01 316.09 464.66 331.07 462.59C330.692 464.148 330.501 465.746 330.5 467.35C330.543 472.172 332.249 476.831 335.33 480.54C325.243 483.829 316.1 489.505 308.678 497.085C301.256 504.666 295.775 513.926 292.7 524.08C283.58 553.95 283.55 587.66 292.48 622.49C285.161 621.474 277.749 621.296 270.39 621.96C254.252 601.763 231.975 587.37 206.93 580.96L151.03 566.69C149.878 566.394 148.67 566.399 147.521 566.705C146.372 567.011 145.321 567.608 144.469 568.438C143.617 569.267 142.994 570.302 142.657 571.443C142.321 572.583 142.284 573.791 142.55 574.95L154.23 626.06C151.203 627.041 148.305 628.384 145.6 630.06C129.97 639.9 113.07 664.85 121.37 727.82C130.89 800.01 160.61 823.48 172.08 829.97C172.32 830.339 172.587 830.69 172.88 831.02C185.15 844.52 215.07 865.83 251.82 865.83C255.321 865.83 258.82 865.633 262.3 865.24C255.89 888.01 261.52 909.75 267.77 930.82C237.97 940.43 215.83 958.25 204.89 968.48C190.77 981.68 175.98 1000.32 176.8 1013.07C177.85 1029.28 200.16 1032.3 219.47 1033.07C223.47 1033.24 227.8 1033.32 232.32 1033.32C253.32 1033.32 279 1031.66 303.99 1030.04C333.67 1028.12 344.81 1024.1 349.49 1019.57C357.186 1023.74 365.558 1026.51 374.22 1027.77H374.5L375.09 1027.87C375.34 1027.87 400.32 1031.79 431.22 1035.02C459.69 1038.02 483.69 1039.49 502.93 1039.49C509.597 1039.49 515.68 1039.31 521.18 1038.95C527.3 1049.19 545.57 1051.43 561.75 1052.11C565.75 1052.29 570.08 1052.36 574.6 1052.36C595.6 1052.36 621.29 1050.7 646.27 1049.09C662.17 1048.09 681.71 1047.44 700.6 1046.85C738.16 1045.67 773.81 1044.55 790.53 1040.33C799.53 1048.33 811.23 1057.33 821.34 1057.33C824.557 1057.36 827.689 1056.3 830.23 1054.33C835.43 1050.33 836.92 1043.73 836.35 1036.2C849.906 1048.27 864.354 1059.3 879.57 1069.2C880.812 1069.99 882.246 1070.43 883.718 1070.46C885.19 1070.5 886.644 1070.13 887.922 1069.4C889.201 1068.67 890.257 1067.61 890.975 1066.32C891.694 1065.04 892.048 1063.58 892 1062.11L890.95 1027.59L892.21 1026.91C907.14 1038.8 925.48 1048.71 926.33 1049.17C927.373 1049.73 928.526 1050.05 929.707 1050.12C930.888 1050.18 932.07 1049.99 933.169 1049.55C934.267 1049.11 935.257 1048.44 936.067 1047.57C936.877 1046.71 937.489 1045.68 937.86 1044.56C942.47 1030.56 941.24 1014.86 938.61 1002.12C944.66 1007.65 951.4 1014.12 958.76 1021.63C963.6 1026.53 967.86 1028.1 971.32 1028.1C973.195 1028.09 975.04 1027.63 976.7 1026.76C985.87 1022.02 993.92 1007.23 973.35 891.03C973.02 889.14 972.79 887.87 972.71 887.39C972.42 884.23 972.03 880.88 971.53 877.39C1000.61 847.39 1018.29 812 1024.08 772.09C1028.93 738.67 1025.46 702.04 1013.78 663.2C1002.44 625.46 985.39 592.34 971.36 568.88C975.51 571.6 979.8 574.3 984.14 576.88C1026.66 602.24 1038.37 596.39 1042.23 594.47C1051.89 589.59 1051.23 578.33 1049.97 572.05ZM435.97 374.59L436.3 374.87L434.45 374.54C434.957 374.529 435.464 374.546 435.97 374.59ZM308.22 528.81C311.333 518.52 317.688 509.513 326.338 503.13C334.988 496.747 345.47 493.33 356.22 493.39C358.119 493.383 359.955 492.71 361.408 491.488C362.862 490.266 363.84 488.572 364.174 486.703C364.507 484.834 364.173 482.907 363.232 481.258C362.29 479.609 360.799 478.343 359.02 477.68C354.02 475.82 346.73 471.04 346.73 467.29C346.73 464.71 349.73 460.84 354.86 456.92C356.333 455.777 357.367 454.16 357.787 452.344C358.206 450.527 357.986 448.62 357.164 446.947C356.341 445.273 354.966 443.935 353.271 443.158C351.576 442.38 349.665 442.212 347.86 442.68C329.71 447.52 306.97 449.54 300.28 445.2C301.09 443.41 303.79 439.79 309.44 435.33C326.87 435.33 332.63 429.09 334.35 423.69C336.07 418.29 333.77 414.2 331.03 412.21C324.4 407.43 313.33 412.83 304.42 418.94C288.5 417.74 274.42 411.41 273.24 407.5C270.84 399.43 294.69 374.5 326.37 361.28C345.91 353.14 373.57 374.38 382.58 383.28C383.647 384.335 384.987 385.072 386.449 385.41C387.911 385.747 389.438 385.671 390.86 385.19C396.65 383.24 402.48 381.46 407.99 379.93C407.82 380.2 407.65 380.46 407.5 380.75C406.5 382.54 405.27 386.15 406.84 391.45C396.18 390.37 382.7 390.34 372.28 394.78C349.75 404.39 340.66 409.78 342.7 418.3C344.74 426.82 356.05 426.11 362.81 425.66C375.89 424.81 405.9 429.79 432.38 434.19L433.25 434.34C434.223 434.501 435.218 434.468 436.179 434.245C437.139 434.021 438.046 433.61 438.848 433.036C439.65 432.462 440.331 431.735 440.852 430.897C441.373 430.06 441.724 429.128 441.885 428.155C442.046 427.182 442.013 426.187 441.79 425.226C441.566 424.265 441.155 423.358 440.581 422.557C440.006 421.755 439.28 421.074 438.442 420.553C437.605 420.032 436.673 419.681 435.7 419.52L434.84 419.37C412.24 415.62 389.03 411.76 372.98 410.79C374.55 410.08 376.28 409.33 378.16 408.52C390.11 403.43 411.16 406.52 420.7 408.9C422.289 409.296 423.965 409.159 425.47 408.512C426.974 407.865 428.225 406.742 429.031 405.315C429.836 403.889 430.152 402.238 429.93 400.615C429.708 398.992 428.959 397.487 427.8 396.33C425.476 394.003 423.46 391.389 421.8 388.55C424.17 388.37 428.9 388.55 437.8 390.49C465.64 396.63 475.21 415.06 478.45 425.82C475.06 425.52 470.31 424.96 463.65 423.99C461.706 423.749 459.745 424.279 458.187 425.467C456.63 426.654 455.599 428.405 455.316 430.343C455.034 432.281 455.522 434.253 456.676 435.836C457.83 437.418 459.558 438.486 461.49 438.81C472.19 440.38 479.3 441.11 484.13 441.11C485.713 441.135 487.296 441.021 488.86 440.77C490.674 440.454 492.307 439.481 493.449 438.036C494.591 436.592 495.161 434.778 495.05 432.94C494.151 424.307 491.471 415.955 487.18 408.41C480.98 397.33 468.63 383.12 444.73 376.76C449.78 375.35 451.61 370.12 453.86 363.63C461.61 341.29 467.64 338.05 475.44 339.99C479.81 341.09 487.95 343.12 491.83 336.67C495.71 330.22 490.74 324.81 485.03 318.47C480.18 313.08 471.14 303.05 472.03 296.96C472.13 296.23 472.45 293.96 476.92 291.19C482.01 288 485.49 288.74 487.66 289.57C501.31 294.8 512.55 324.41 515.4 334.36C515.885 336.052 516.908 337.54 518.313 338.601C519.718 339.662 521.429 340.237 523.19 340.24V340.24C524.95 340.236 526.661 339.659 528.065 338.596C529.468 337.533 530.488 336.043 530.97 334.35C533.309 326.428 536.07 318.637 539.24 311.01C547.24 292.01 552.55 289.14 553.24 288.85C554.32 288.884 555.37 289.213 556.277 289.802C557.183 290.39 557.91 291.217 558.38 292.19C561.38 297.74 560.85 310.34 550.21 329.1C548.83 331.31 547.56 333.4 546.46 335.32C545.408 337.153 545.115 339.324 545.641 341.37C546.168 343.416 547.474 345.176 549.279 346.273C551.085 347.37 553.248 347.718 555.307 347.243C557.366 346.768 559.157 345.508 560.3 343.73C561.62 341.68 562.87 339.59 564.05 337.54C573.424 322.744 584.046 308.777 595.8 295.79C610.57 279.79 618.53 276.28 620.8 276.18C625.38 280.51 626.18 286.6 626.03 290.99C625.58 304.34 616.52 319.51 602.4 330.57C601.984 330.898 601.602 331.266 601.26 331.67C601.099 331.855 600.949 332.048 600.81 332.25C599.976 333.467 599.49 334.888 599.404 336.36C599.319 337.833 599.637 339.3 600.324 340.605C601.012 341.91 602.042 343.003 603.305 343.765C604.568 344.527 606.015 344.93 607.49 344.93C607.929 344.928 608.367 344.891 608.8 344.82C608.89 344.82 608.98 344.77 609.08 344.76C609.38 344.69 609.69 344.63 609.98 344.54C612.05 343.92 649.57 333.17 660.44 354.9C661.221 356.465 662.487 357.735 664.05 358.52L693.2 373.17C694.919 374.267 696.758 375.167 698.68 375.85C698.954 375.948 699.235 376.029 699.52 376.09V376.09C699.819 376.16 700.123 376.21 700.43 376.24V376.24C701.979 376.418 703.547 376.146 704.945 375.455C706.342 374.764 707.511 373.684 708.311 372.345C709.11 371.006 709.506 369.465 709.451 367.907C709.396 366.348 708.892 364.839 708 363.56C707.995 363.537 707.995 363.513 708 363.49C707.86 363.3 707.73 363.12 707.58 362.95L707.43 362.79C707.31 362.65 707.18 362.51 707.04 362.37L706.86 362.21L706.44 361.84L706.23 361.7C706.086 361.585 705.935 361.479 705.78 361.38L705.54 361.23L705.07 360.97L701.48 359.17C701.06 358.85 700.48 358.33 700.48 357.96C700.57 356.83 702.66 346.34 748.23 324.9C769.93 314.69 801.54 303.73 828.88 309.51C839.58 311.77 846.19 315.86 849.44 318.38C847.44 333.98 839.74 366.32 822.79 369.38C820.941 369.717 819.267 370.687 818.054 372.123C816.842 373.559 816.166 375.372 816.144 377.252C816.122 379.131 816.753 380.96 817.931 382.424C819.109 383.889 820.759 384.899 822.6 385.28C832.34 387.28 860.46 396.28 861.93 410.5C861.952 410.838 862.009 411.173 862.1 411.5C862.259 412.571 862.199 413.662 861.924 414.709C861.649 415.756 861.165 416.736 860.5 417.59C858.16 420.66 852.71 422.64 845.16 423.17C843.377 423.288 841.683 423.993 840.341 425.174C839 426.355 838.088 427.947 837.745 429.701C837.403 431.455 837.65 433.273 838.449 434.871C839.247 436.47 840.552 437.76 842.16 438.54C853.04 443.8 863.85 451.89 865.16 455.67L864.92 455.88C858.49 461.13 831.65 453.99 810.61 444.02C809.157 443.331 807.533 443.089 805.942 443.326C804.352 443.563 802.868 444.268 801.68 445.352C800.492 446.435 799.653 447.847 799.27 449.408C798.887 450.97 798.978 452.61 799.53 454.12C802.7 462.59 806.25 471.42 809.7 479.92C824.09 515.61 838.98 552.51 831.79 588.51C823.46 630.21 797.79 669.64 755.5 705.69C733.02 724.87 705.4 743.42 673.42 760.83C633.2 782.74 591.49 796.92 552.82 801.83C507.01 807.67 466.17 800.72 431.43 781.2C421.398 775.507 411.835 769.027 402.83 761.82C363.83 730.75 330.73 684.54 314.22 638.08C313.971 636.782 313.54 635.527 312.94 634.35C300.25 596.76 298.62 560.27 308.22 528.81ZM602.28 952.69C600.07 928.82 602.87 904.78 610.81 879.36C618.99 855.46 629.16 838.36 642.73 825.73C655.67 813.97 668.92 807.09 682.12 805.3C687.775 804.788 693.465 804.788 699.12 805.3C703.56 805.67 707.99 807.36 712.69 809.15L715.99 810.39C721.58 812.84 734.63 821.46 742.69 827.57L742.3 828.32C735.73 840.54 732.58 861.17 732.66 891.39C732.74 917.64 735.25 947.22 737.45 970.24C710.54 954.54 673.01 941.71 641.94 943.72C628.34 944.674 614.966 947.698 602.28 952.69ZM162.38 802.75C152.98 790.62 140.62 767.46 135.16 726.03C128.91 678.67 137.99 657.03 146.71 647.24C152.03 641.24 157.42 639.43 160.06 638.88C160.899 639.191 161.785 639.353 162.68 639.36C163.293 639.36 163.904 639.286 164.5 639.14C165.024 639.014 165.53 638.826 166.01 638.58C172.64 638.46 191.01 638.58 207.72 638.83L212.11 640.07C248.93 650.73 266.02 660.38 269.11 664.64C267.553 665.748 265.841 666.621 264.03 667.23C223.29 682.66 212.7 690.5 211.7 691.34C210.567 692.233 209.741 693.457 209.336 694.842C208.931 696.226 208.967 697.703 209.44 699.065C209.913 700.428 210.799 701.61 211.975 702.446C213.15 703.282 214.557 703.731 216 703.73H216.05C216.38 703.73 245.05 703.73 264.83 715.73C252.9 724.17 233.64 736.34 222.31 737.73C220.788 737.923 219.374 738.614 218.287 739.696C217.2 740.778 216.502 742.19 216.302 743.71C216.102 745.231 216.412 746.775 217.182 748.101C217.952 749.427 219.14 750.46 220.56 751.04L263.89 768.65C244.63 786.14 208.13 815.03 182.56 818.36C181.248 817.703 179.782 817.419 178.32 817.54C174.85 815.48 168.86 811.12 162.38 802.75ZM195.38 829.63C209.92 825.17 226.97 815.63 246.31 801.09C258.58 791.856 270.269 781.874 281.31 771.2C282.126 770.393 282.728 769.396 283.064 768.299C283.399 767.202 283.457 766.039 283.232 764.913C283.007 763.788 282.506 762.737 281.775 761.853C281.043 760.969 280.103 760.281 279.04 759.85L242.91 745.16C260.3 736.82 278.05 723.23 280.69 721.16C281.489 720.537 282.142 719.746 282.603 718.843C283.064 717.941 283.322 716.949 283.359 715.936C283.396 714.923 283.212 713.914 282.818 712.981C282.424 712.047 281.831 711.21 281.08 710.53C269.27 699.88 252.95 694.71 239.59 692.19C246.76 688.96 256.33 684.95 268.95 680.19C278.78 676.46 283.63 671.19 283.36 664.47C283.01 655.88 273.86 648.26 253.69 639.75C241.346 634.731 228.737 630.391 215.92 626.75L210.57 625.25C209.993 625.089 209.398 625.001 208.8 624.99C186.03 624.67 174.33 624.63 168.17 624.72L158.63 582.96L203.52 594.42C225.864 600.146 245.703 613.063 259.98 631.18C260.209 633.295 261.263 635.234 262.912 636.578C264.561 637.921 266.672 638.562 268.79 638.36C290.79 636.3 296.93 640.36 298.19 641.44C298.33 641.84 298.46 642.23 298.6 642.62L298.66 642.79C298.656 642.84 298.656 642.89 298.66 642.94C315.08 689.54 345.84 734.24 383.88 767.22C381.2 768.63 378.12 770.32 374.75 772.29C368.66 772.4 350.31 772.86 346.68 773.46C333 775.62 320.18 781.87 307.47 792.56C291.2 806.26 277.76 825.31 268.47 847.86C238.24 854.44 211.44 841.86 195.42 829.59L195.38 829.63ZM289.87 919.93C290.22 921.81 290.6 923.68 290.98 925.52C287.72 925.96 284.45 926.53 281.17 927.23C275.08 906.76 269.99 887.28 276.06 867.59C276.7 865.51 277.4 863.44 278.13 861.38C279.236 860.481 280.085 859.305 280.591 857.972C281.096 856.639 281.241 855.197 281.01 853.79C289.51 833.01 301.7 815.56 316.43 803.15C327.15 794.15 337.76 788.9 348.92 787.15C349.48 787.06 350.83 786.96 352.63 786.87C339.42 796.65 325.22 809.31 313.49 824.87C291.55 854.09 283.61 886.07 289.91 919.93H289.87ZM303.08 1016.27C273.08 1018.21 242.08 1020.21 220.08 1019.27C191.38 1018.05 190.67 1012.27 190.67 1012.18C190.45 1008.82 196.12 995.7 214.38 978.62C225.2 968.51 247.88 950.33 278.22 942.2C283.476 940.796 288.821 939.753 294.22 939.08C297.193 950.383 301.249 961.374 306.33 971.9V971.98C314.98 991.4 324.93 1004.36 335.9 1010.55L336.72 1011.2C332.7 1012.73 323.48 1014.95 303.12 1016.27H303.08ZM377.47 1014.27C377.08 1014.19 376.67 1014.14 376.16 1014.06C366.486 1012.61 357.288 1008.9 349.31 1003.24C347.679 1001.58 345.816 1000.16 343.78 999.03C334.05 990.86 325.69 979.79 318.94 966.11C313.87 954.442 309.808 942.361 306.8 930C306.588 929.055 306.179 928.166 305.6 927.39C304.85 924.14 304.15 920.78 303.51 917.34C298.09 888.22 300.84 832.34 380.19 785.14C386.6 781.33 392.01 778.53 395.62 776.76C404.427 783.608 413.721 789.805 423.43 795.3C452.69 811.75 485.75 820.02 522.05 820.02C533.004 820.002 543.946 819.287 554.81 817.88C595.46 812.7 639.13 797.88 681.11 775.02C708.32 760.21 732.5 744.54 753.24 728.34C753.8 749.94 753.71 788.6 747.4 813.84C738.75 807.56 727.34 800.16 721.22 797.53L720.86 797.39C719.76 796.99 718.66 796.57 717.55 796.15C712.17 794.1 706.6 791.98 700.25 791.45C693.74 790.86 687.19 790.86 680.68 791.45H680.39C664.3 793.6 648.47 801.66 633.29 815.45C617.91 829.81 606.57 848.69 597.61 874.88L597.55 875.05C588.55 903.92 585.7 931.22 588.9 958.49C553.28 976.19 525.29 1006.23 519.98 1025.15C470.42 1028.37 382.85 1015.13 377.51 1014.31L377.47 1014.27ZM700.15 1033.05C681.15 1033.65 661.5 1034.27 645.37 1035.31C615.37 1037.25 584.37 1039.31 562.37 1038.31C533.67 1037.1 532.96 1031.31 532.96 1031.23C532.39 1022.51 557.3 989.03 597.1 970C598.297 969.784 599.417 969.26 600.35 968.48C613.732 962.304 628.113 958.578 642.81 957.48C675.07 955.4 717.81 972.05 742.68 990.08C742.74 990.21 742.79 990.35 742.85 990.48C750.19 1006.13 763.76 1017.66 777.01 1028.74C758.7 1031.25 728.04 1032.22 700.19 1033.09L700.15 1033.05ZM969.23 1009.14C958.94 998.75 949.78 990.14 941.98 983.4C931.98 974.77 927.49 972.24 926.7 971.82C925.207 971.029 923.503 970.725 921.829 970.95C920.154 971.175 918.592 971.918 917.36 973.076C916.129 974.233 915.291 975.747 914.962 977.404C914.634 979.062 914.833 980.781 915.53 982.32C917.621 987.218 919.376 992.253 920.78 997.39V997.39C923.25 1006.26 925.54 1018.12 924.47 1029.34C916.99 1024.82 906.47 1018.02 898.47 1010.98C892.89 1006.12 890.29 1002.73 889.1 1000.74C888.168 999.223 886.762 998.055 885.1 997.417C883.437 996.779 881.611 996.706 879.903 997.211C878.196 997.715 876.702 998.768 875.653 1000.21C874.604 1001.65 874.058 1003.39 874.1 1005.17L874.66 1022.99L875.39 1046.72C860.97 1036.34 837.88 1018.18 824.08 999.52C821.27 994 818.08 988.37 814.53 982.77C813.456 981.07 811.789 979.829 809.851 979.291C807.914 978.752 805.846 978.953 804.048 979.854C802.251 980.756 800.853 982.294 800.127 984.169C799.401 986.045 799.398 988.123 800.12 990C802.71 996.406 806.108 1002.45 810.23 1008C819.13 1025.79 820.82 1037 820.23 1040.94C817.96 1040.36 812.05 1037.94 800.55 1027.58C799.84 1026.94 799.13 1026.31 798.43 1025.71C795.03 1022.71 791.56 1019.82 788.2 1017.01C775.49 1006.39 763.48 996.35 757.52 983.62C755.395 979.142 754.075 974.325 753.62 969.39C750.49 936.9 743.18 860.8 756.54 835.95C757.715 833.749 758.747 831.474 759.63 829.14C772.05 796.88 769.86 732.23 769.04 715.32C805.92 683.15 830.57 648.21 842.54 611.17C848.13 621.04 855.73 634.71 864.34 650.86C931.2 776.38 949.75 844.61 954.81 875.06C954.3 876.23 954.124 877.517 954.3 878.781C954.477 880.045 954.999 881.235 955.81 882.22C956.1 884.5 956.35 886.71 956.53 888.82C956.521 888.96 956.521 889.1 956.53 889.24V889.24C956.6 889.78 956.76 890.68 957.3 893.73C971.44 973.16 970.75 1000.24 969.27 1009.18L969.23 1009.14ZM1035.99 581.96C1032.73 583.58 1019.63 581.81 991.2 564.87C971.27 552.98 952.54 538.7 948.09 533.87L947.24 532.75C946.158 531.367 944.592 530.445 942.858 530.171C941.123 529.896 939.35 530.29 937.894 531.271C936.438 532.253 935.408 533.75 935.012 535.461C934.616 537.171 934.883 538.969 935.76 540.49C936.217 541.256 936.742 541.979 937.33 542.65C944.74 552.49 981.15 602.91 1000.46 667.11C1011.55 704 1014.86 738.62 1010.31 770.02C1005.42 803.72 991.31 834.02 968.41 860.19C954.35 794.19 912.51 706.95 878.59 643.29L878.12 642.39C877.43 629.54 875.81 589.21 879.64 548C885.5 484.77 901 448.18 924.46 442.17C937.9 438.73 951.35 441.17 964.46 449.41C985.76 462.81 1002.04 488.5 1011.94 507.7C1025.14 533.3 1033.19 559.12 1036.31 574.7C1037.25 579.18 1036.81 581.59 1036.03 582L1035.99 581.96Z" fill="#4A3993"/><path id="Vector_26" d="M368.149 558.45C369.212 558.516 370.277 558.516 371.34 558.45C388.89 557.73 414.839 548.12 433.509 540.19C438.159 538.19 442.069 536.47 444.909 535.19L458.249 574.94C458.49 575.65 458.89 576.295 459.42 576.826C459.95 577.356 460.595 577.757 461.305 577.998C462.014 578.239 462.77 578.313 463.513 578.214C464.256 578.116 464.967 577.847 465.59 577.43L507.639 549.12C512.639 552.59 523.729 560.21 535.169 567.43C557.399 581.43 566.719 585.11 571.549 585.11C573.048 585.152 574.518 584.687 575.72 583.79C582.59 578.93 606.079 545.54 612.079 536.92C632.476 524.064 654.584 514.15 677.749 507.47C688.79 504.259 700.014 501.714 711.359 499.85C715.387 499.348 719.219 497.823 722.489 495.42C729.429 489.87 732.81 481.88 731.54 474.06C730.69 468.79 726.88 459.06 710.98 453.23C709.767 452.783 708.428 452.836 707.254 453.377C706.081 453.918 705.171 454.903 704.725 456.115C704.278 457.327 704.331 458.667 704.872 459.84C705.413 461.013 706.397 461.923 707.609 462.37C715.949 465.44 721.039 470.15 721.919 475.62C722.619 479.93 720.56 484.49 716.41 487.81C714.428 489.143 712.153 489.976 709.78 490.24C700.58 491.75 691.46 493.7 682.59 496.03C683.338 491.339 683.609 486.585 683.4 481.84C682.27 462.51 676.399 452.29 665.939 451.46C652.319 450.38 637.28 467.85 629.54 478.36C618.09 493.92 608.699 512.81 605.699 526.5C605.429 527.74 605.179 528.97 604.949 530.2C604.835 530.316 604.728 530.44 604.629 530.57C593.339 546.81 575.949 570.57 570.739 575.32C563.619 574.32 534.419 556.2 510.499 539.25C509.691 538.679 508.728 538.368 507.739 538.357C506.749 538.347 505.78 538.637 504.96 539.19L465.429 565.8L452.399 526.94C452.182 526.284 451.826 525.682 451.356 525.174C450.887 524.667 450.314 524.266 449.677 523.998C449.039 523.73 448.352 523.601 447.661 523.62C446.97 523.64 446.291 523.807 445.669 524.11C445.619 524.11 442.509 525.63 437.489 527.87C437.688 525.295 437.718 522.709 437.579 520.13C436.489 501.62 431.009 491.45 421.289 489.89C401.759 486.77 376.199 523.75 365.549 548.04C364.248 547.541 363.148 546.627 362.419 545.44C358.329 538.88 362.139 523.21 365.499 514.88C365.882 513.709 365.806 512.436 365.288 511.318C364.769 510.201 363.846 509.321 362.705 508.857C361.563 508.393 360.288 508.378 359.137 508.817C357.985 509.255 357.043 510.114 356.499 511.22C355.419 513.89 346.149 537.7 354.189 550.59C356.199 553.87 360.289 557.89 368.149 558.45ZM665.15 461.19C669.79 461.56 672.89 469.3 673.66 482.43C673.844 487.989 673.351 493.55 672.189 498.99C652.894 504.787 634.316 512.748 616.809 522.72C625.419 495.59 652.579 460.19 665.169 461.19H665.15ZM419.749 499.51C424.149 500.22 427.099 507.94 427.849 520.7C428.014 524.581 427.803 528.469 427.219 532.31C406.219 541.09 388.369 546.65 376.109 548.31C388.239 522.33 409.619 497.89 419.749 499.51Z" fill="#4A3993"/><path id="Vector_27" d="M547.609 508.07C560.759 508.07 574.069 503.24 574.069 493.99C574.069 484.74 560.759 479.91 547.609 479.91C534.459 479.91 521.149 484.75 521.149 493.99C521.149 503.23 534.459 508.07 547.609 508.07ZM547.609 489.65C557.329 489.65 563.079 492.56 564.209 493.99C563.079 495.42 557.329 498.33 547.609 498.33C537.889 498.33 532.139 495.42 531.009 493.99C532.139 492.59 537.889 489.65 547.609 489.65Z" fill="#4A3993"/><path id="Vector_28" d="M469.699 508.07C482.839 508.07 496.159 503.24 496.159 493.99C496.159 484.74 482.839 479.91 469.699 479.91C456.559 479.91 443.229 484.75 443.229 493.99C443.229 503.23 456.549 508.07 469.699 508.07ZM469.699 489.65C479.419 489.65 485.159 492.56 486.299 493.99C485.159 495.42 479.409 498.33 469.699 498.33C459.989 498.33 454.23 495.42 453.09 493.99C454.23 492.59 459.969 489.65 469.699 489.65Z" fill="#4A3993"/><g id="Group_7" style="mix-blend-mode:multiply"><g id="Vector_29" style="mix-blend-mode:multiply"><path d="M310.32 411.59C306.636 411.734 302.996 410.758 299.88 408.79C297.3 407.03 293.15 402.79 294.35 394.26C294.65 392.477 295.634 390.881 297.092 389.813C298.55 388.744 300.368 388.287 302.159 388.539C303.949 388.79 305.571 389.73 306.678 391.159C307.786 392.588 308.292 394.393 308.09 396.19C308.019 396.619 307.996 397.055 308.02 397.49C310.96 398.61 321.38 396.13 327.34 392.81C328.405 392.214 329.609 391.911 330.829 391.93C332.05 391.95 333.243 392.291 334.29 392.92L335.29 393.51C335.912 393.952 336.583 394.322 337.29 394.61H337.73C339.225 394.685 340.686 395.082 342.015 395.772C343.343 396.462 344.508 397.43 345.43 398.61C346.507 399.943 347.053 401.627 346.963 403.339C346.872 405.05 346.152 406.668 344.94 407.88C343.728 409.092 342.11 409.813 340.399 409.903C338.687 409.993 337.003 409.447 335.67 408.37C334.922 408.277 334.184 408.126 333.46 407.92C332.385 407.608 331.344 407.193 330.35 406.68C325.78 408.68 317.77 411.59 310.32 411.59Z" fill="#9DD7EE"/></g></g><g id="Group_8" style="mix-blend-mode:multiply"><g id="Vector_30" style="mix-blend-mode:multiply"><path d="M737.59 408.5C734.326 408.555 731.097 407.808 728.189 406.325C725.281 404.841 722.781 402.666 720.91 399.99L732.19 391.91C732.827 392.864 733.718 393.622 734.762 394.099C735.805 394.576 736.962 394.753 738.1 394.61C741.444 394.267 744.633 393.026 747.33 391.02C750.33 388.9 750.39 387.35 750.59 383.6C750.84 378.75 751.22 371.42 760.36 366.15C765.15 363.39 772.04 363.15 779.36 362.88C783.19 362.74 787.16 362.6 789.36 362.05L789.8 361.93C812.25 356.2 816 351.53 815.91 343.23L829.7 343.09C829.94 365.98 807.8 371.63 793.16 375.38L792.72 375.49C789.1 376.41 784.58 376.57 779.8 376.74C775.8 376.89 769.05 377.13 767.25 378.17C764.64 379.67 764.6 380.47 764.4 384.32C764.15 389.1 763.78 396.32 755.31 402.32C750.477 405.868 744.748 407.991 738.77 408.45L737.59 408.5Z" fill="#9DD7EE"/></g></g><path id="Vector_31" d="M212.779 993.33C201.629 993.33 191.109 984.98 186.649 975.33C180.709 962.53 182.649 947.8 184.649 937.84C187.429 924 191.479 913.78 197.429 905.67C198.643 904.019 199.959 902.446 201.369 900.96C198.996 897.23 197.54 892.991 197.119 888.59C196.119 877.99 200.689 868.33 205.119 858.98C206.199 856.68 207.309 854.31 208.299 851.98C213.861 838.924 216.627 824.849 216.419 810.66C216.391 810.282 216.441 809.903 216.565 809.545C216.688 809.187 216.884 808.859 217.139 808.579C217.395 808.3 217.705 808.075 218.05 807.92C218.395 807.764 218.768 807.681 219.147 807.675C219.525 807.669 219.901 807.74 220.251 807.884C220.601 808.028 220.918 808.243 221.182 808.514C221.447 808.785 221.653 809.107 221.788 809.46C221.923 809.814 221.985 810.191 221.969 810.57C222.188 825.542 219.269 840.394 213.399 854.17C212.399 856.56 211.239 858.98 210.149 861.31C205.889 870.39 201.869 878.97 202.699 888.07C202.999 891.244 203.985 894.315 205.589 897.07C211.807 891.769 219.567 888.613 227.719 888.07C234.339 887.79 241.629 891.31 245.079 896.45C246.206 898.008 246.898 899.837 247.086 901.75C247.274 903.663 246.951 905.592 246.149 907.34C244.039 911.92 239.349 914.09 235.799 915.1C227.569 917.44 218.399 915.71 210.619 910.37C208.517 908.926 206.584 907.249 204.859 905.37C203.835 906.495 202.87 907.673 201.969 908.9C196.529 916.33 192.769 925.9 190.169 938.9C188.319 948.1 186.479 961.64 191.739 972.97C197.329 985.03 209.669 989.6 217.889 986.91C218.241 986.775 218.617 986.714 218.993 986.729C219.37 986.744 219.739 986.836 220.079 986.998C220.419 987.161 220.723 987.39 220.971 987.674C221.219 987.957 221.408 988.288 221.524 988.646C221.641 989.004 221.684 989.382 221.65 989.757C221.616 990.133 221.506 990.497 221.327 990.828C221.148 991.16 220.903 991.451 220.608 991.685C220.313 991.92 219.973 992.091 219.609 992.19C217.408 992.929 215.102 993.314 212.779 993.33ZM208.779 901.62C210.244 903.213 211.885 904.635 213.669 905.86C220.079 910.26 227.559 911.7 234.189 909.86C236.189 909.29 239.719 907.92 241.009 905.12C241.412 904.237 241.566 903.261 241.455 902.297C241.344 901.333 240.972 900.418 240.379 899.65C238.019 896.12 232.509 893.52 227.869 893.72C221.279 893.97 214.559 896.82 208.819 901.59L208.779 901.62Z" fill="#4A3993"/><path id="Vector_32" d="M205.24 634.68C204.52 634.68 203.829 634.401 203.312 633.901C202.795 633.4 202.493 632.719 202.47 632L193.2 339.59C193.169 339.214 193.215 338.836 193.335 338.478C193.454 338.121 193.646 337.791 193.897 337.51C194.148 337.228 194.454 337.001 194.796 336.842C195.138 336.683 195.508 336.594 195.885 336.583C196.262 336.571 196.638 336.637 196.989 336.775C197.34 336.913 197.659 337.121 197.927 337.386C198.195 337.652 198.406 337.969 198.547 338.318C198.689 338.668 198.758 339.043 198.75 339.42L208.02 631.84C208.032 632.204 207.972 632.568 207.843 632.909C207.714 633.25 207.519 633.563 207.269 633.829C207.019 634.094 206.719 634.308 206.386 634.458C206.054 634.607 205.695 634.689 205.33 634.7L205.24 634.68Z" fill="#4A3993"/><g id="Vector_33" style="mix-blend-mode:multiply" opacity="0.2"><path d="M714.299 918C714.479 933.62 685.839 944.64 680.419 922C676.599 906.07 697.42 895.47 708.78 906.64C712.64 910.44 714.259 914.34 714.299 918Z" fill="#9DD7EE"/></g><g id="Vector_34" style="mix-blend-mode:multiply" opacity="0.2"><path d="M698.95 884.96C699.05 893.6 683.21 899.7 680.21 887.18C678.1 878.37 689.6 872.51 695.9 878.69C696.802 879.477 697.537 880.438 698.061 881.515C698.585 882.592 698.888 883.764 698.95 884.96V884.96Z" fill="#9DD7EE"/></g><g id="Vector_35" style="mix-blend-mode:multiply" opacity="0.2"><path d="M714.299 658.59C714.479 674.21 685.839 685.23 680.419 662.59C676.599 646.66 697.42 636.06 708.78 647.23C712.64 651.07 714.259 654.97 714.299 658.59Z" fill="#9DD7EE"/></g><g id="Vector_36" style="mix-blend-mode:multiply" opacity="0.2"><path d="M698.95 625.59C699.05 634.23 683.21 640.33 680.21 627.81C678.1 619 689.6 613.14 695.9 619.32C696.802 620.108 697.537 621.068 698.061 622.145C698.585 623.223 698.888 624.394 698.95 625.59V625.59Z" fill="#9DD7EE"/></g><g id="Vector_37" style="mix-blend-mode:multiply" opacity="0.2"><path d="M891.08 728.2C890.08 740.01 873.83 752.06 861 738.88C838.44 715.71 893.08 704.35 891.08 728.2Z" fill="#9DD7EE"/></g><g id="Vector_38" style="mix-blend-mode:multiply" opacity="0.2"><path d="M839.7 725.32C838.93 734.55 826.21 743.97 816.18 733.67C798.58 715.59 841.3 706.67 839.7 725.32Z" fill="#9DD7EE"/></g><g id="Vector_39" style="mix-blend-mode:multiply" opacity="0.2"><path d="M858.949 774.04C858.459 779.8 850.539 785.68 844.279 779.25C833.269 767.95 859.919 762.41 858.949 774.04Z" fill="#9DD7EE"/></g><path id="Vector_40" d="M544.639 896.03C543.032 896.031 541.475 895.469 540.239 894.44C503.059 863.8 458.609 850.85 408.159 855.96C370.369 859.79 343.499 872.76 343.229 872.89C341.577 873.698 339.672 873.816 337.932 873.219C336.193 872.621 334.762 871.357 333.954 869.705C333.147 868.053 333.029 866.147 333.626 864.408C334.223 862.669 335.487 861.238 337.139 860.43C338.319 859.85 366.529 846.23 406.759 842.16C444.079 838.38 499.059 842.53 549.059 883.74C550.161 884.65 550.954 885.878 551.332 887.256C551.71 888.634 551.653 890.094 551.169 891.439C550.686 892.783 549.799 893.945 548.63 894.767C547.462 895.589 546.068 896.03 544.639 896.03V896.03Z" fill="#4A3993"/><path id="Vector_41" d="M515.069 942.45C513.46 942.452 511.901 941.893 510.659 940.87C473.819 910.51 434.729 898.53 394.459 905.27C364.219 910.32 344.459 924.62 344.309 924.76C342.828 925.854 340.973 926.315 339.152 926.041C337.331 925.767 335.693 924.781 334.599 923.3C333.505 921.819 333.045 919.963 333.318 918.142C333.592 916.321 334.578 914.684 336.059 913.59C336.939 912.94 358.179 897.42 391.489 891.69C422.179 886.4 469.299 888.79 519.489 930.15C520.59 931.059 521.384 932.286 521.761 933.663C522.139 935.04 522.083 936.5 521.601 937.844C521.119 939.188 520.234 940.35 519.067 941.173C517.9 941.995 516.507 942.438 515.079 942.44L515.069 942.45Z" fill="#4A3993"/><path id="Vector_42" d="M504.29 734.41C500.312 734.353 496.396 733.421 492.82 731.68C482.82 727.05 475.45 716.58 473.66 704.37C472.996 699.445 473.084 694.448 473.92 689.55C466.92 689.07 460.12 684.5 456.17 677.55C453.28 672.48 449.82 661.16 459.09 642.34C460.03 640.43 461.15 638.42 462.34 636.34C465.92 629.94 470.34 621.98 469.43 616.75C469.116 614.944 469.529 613.087 470.58 611.584C471.63 610.082 473.233 609.056 475.037 608.731C476.841 608.407 478.701 608.809 480.21 609.85C481.718 610.892 482.754 612.488 483.09 614.29C484.91 624.41 479.09 634.78 474.45 643.11C473.35 645.11 472.32 646.92 471.54 648.51C466.9 657.92 465.66 666.23 468.23 670.72C469.85 673.58 472.54 675.59 474.92 675.72C475.82 675.72 477.18 675.61 478.62 673.64C479.605 672.3 481.038 671.358 482.659 670.985C484.281 670.613 485.981 670.836 487.452 671.613C488.923 672.389 490.066 673.668 490.673 675.217C491.28 676.765 491.311 678.481 490.76 680.05C487.52 689.24 486.48 696.13 487.39 702.37C488.49 709.88 492.91 716.45 498.64 719.1C506.85 722.89 511.89 718.68 521.42 708.1L522.36 707.1C523.611 705.793 525.323 705.027 527.131 704.964C528.939 704.901 530.7 705.546 532.039 706.763C533.378 707.979 534.189 709.671 534.299 711.476C534.41 713.282 533.811 715.059 532.63 716.43L531.71 717.43C524.99 724.87 516.35 734.41 504.29 734.41Z" fill="#4A3993"/><path id="Vector_43" d="M311.32 405.16C307.636 405.304 303.996 404.328 300.88 402.36C298.3 400.59 294.15 396.36 295.35 387.83C295.454 386.909 295.741 386.017 296.195 385.209C296.65 384.401 297.261 383.691 297.994 383.123C298.727 382.555 299.566 382.14 300.462 381.902C301.358 381.663 302.293 381.607 303.211 381.736C304.129 381.865 305.012 382.177 305.808 382.653C306.604 383.128 307.296 383.759 307.844 384.507C308.392 385.255 308.785 386.105 308.999 387.007C309.213 387.91 309.243 388.846 309.09 389.76C309.019 390.189 308.996 390.625 309.02 391.06C311.96 392.18 322.38 389.7 328.34 386.38C329.406 385.79 330.609 385.489 331.828 385.506C333.047 385.524 334.24 385.86 335.29 386.48L336.29 387.08C336.916 387.515 337.587 387.884 338.29 388.18H338.73C340.225 388.253 341.688 388.648 343.017 389.339C344.346 390.029 345.51 390.998 346.43 392.18C347.497 393.514 348.034 395.195 347.939 396.901C347.844 398.606 347.123 400.217 345.915 401.424C344.706 402.632 343.094 403.351 341.389 403.444C339.683 403.537 338.003 402.998 336.67 401.93C335.922 401.846 335.183 401.699 334.46 401.49C333.385 401.175 332.343 400.757 331.35 400.24C326.78 402.24 318.77 405.16 311.32 405.16Z" fill="#4A3993"/><path id="Vector_44" d="M746.4 458.58C749.531 458.58 752.07 456.041 752.07 452.91C752.07 449.778 749.531 447.24 746.4 447.24C743.268 447.24 740.729 449.778 740.729 452.91C740.729 456.041 743.268 458.58 746.4 458.58Z" fill="#4A3993"/><path id="Vector_45" d="M746.4 482.72C749.531 482.72 752.07 480.181 752.07 477.05C752.07 473.918 749.531 471.38 746.4 471.38C743.268 471.38 740.729 473.918 740.729 477.05C740.729 480.181 743.268 482.72 746.4 482.72Z" fill="#4A3993"/><path id="Vector_46" d="M769.69 473.25C772.821 473.25 775.359 470.712 775.359 467.58C775.359 464.449 772.821 461.91 769.69 461.91C766.558 461.91 764.02 464.449 764.02 467.58C764.02 470.712 766.558 473.25 769.69 473.25Z" fill="#4A3993"/><path id="Vector_47" d="M732.59 402.95C729.327 403.006 726.1 402.259 723.193 400.775C720.286 399.291 717.789 397.115 715.92 394.44C714.905 392.942 714.515 391.107 714.833 389.326C715.151 387.545 716.152 385.958 717.623 384.904C719.094 383.851 720.919 383.413 722.707 383.685C724.496 383.957 726.108 384.917 727.2 386.36C727.837 387.313 728.725 388.071 729.767 388.549C730.808 389.027 731.962 389.208 733.1 389.07C736.443 388.719 739.631 387.475 742.33 385.47C745.33 383.36 745.4 381.8 745.59 378.05C745.84 373.2 746.22 365.87 755.37 360.6C760.15 357.84 767.05 357.6 774.37 357.33C778.21 357.19 782.18 357.05 784.37 356.5L784.81 356.38C807.25 350.65 811 345.98 810.92 337.68C810.876 336.748 811.021 335.817 811.345 334.943C811.67 334.068 812.167 333.268 812.808 332.59C813.448 331.912 814.219 331.37 815.074 330.997C815.928 330.623 816.85 330.426 817.782 330.416C818.715 330.407 819.64 330.586 820.502 330.942C821.364 331.298 822.146 331.824 822.8 332.489C823.454 333.154 823.967 333.944 824.309 334.812C824.651 335.68 824.815 336.608 824.79 337.54C825.02 360.43 802.89 366.08 788.24 369.83L787.8 369.94C784.18 370.86 779.67 371.02 774.89 371.2C770.89 371.34 764.14 371.58 762.34 372.62C759.73 374.12 759.69 374.92 759.49 378.77C759.24 383.55 758.86 390.77 750.4 396.77C745.563 400.318 739.831 402.441 733.85 402.9C733.4 402.94 733 402.95 732.59 402.95Z" fill="#4A3993"/><path id="Vector_48" d="M355.429 162.17C358.159 193.707 351.476 225.345 336.226 253.084C320.975 280.822 297.841 303.416 269.749 318.007C241.658 332.598 209.871 338.531 178.407 335.056C146.944 331.581 117.217 318.855 92.9866 298.486C68.7561 278.116 51.1099 251.019 42.2794 220.621C33.4489 190.223 33.8308 157.889 43.3768 127.708C52.9228 97.5267 71.2041 70.8541 95.909 51.0628C120.614 31.2716 150.633 19.2506 182.169 16.5199C224.458 12.8636 266.468 26.1538 298.96 53.4675C331.451 80.7812 351.763 119.882 355.429 162.17Z" fill="#FDD32C"/><path id="Vector_49" d="M195.7 342.96C163.94 342.888 132.859 333.761 106.103 316.65C79.3469 299.538 58.025 275.152 44.6381 246.351C31.2512 217.551 26.3546 185.53 30.5225 154.044C34.6904 122.559 47.7501 92.9154 68.1697 68.5899C89.4254 43.333 117.69 24.942 149.392 15.7403C181.094 6.53856 214.813 6.9388 246.288 16.8905C277.763 26.8421 305.583 45.8988 326.233 71.6532C346.883 97.4075 359.437 128.704 362.31 161.59V161.59C364.202 183.434 361.773 205.436 355.162 226.342C348.55 247.247 337.885 266.644 323.775 283.427C309.666 300.21 292.389 314.049 272.931 324.154C253.472 334.259 232.214 340.432 210.37 342.32C205.463 342.753 200.573 342.967 195.7 342.96ZM196.25 22.8199C191.77 22.8199 187.276 23.0132 182.77 23.3999C152.592 26.0124 123.867 37.5149 100.227 56.4528C76.5869 75.3907 59.0934 100.914 49.9587 129.794C40.824 158.674 40.4585 189.614 48.9082 218.702C57.358 247.79 74.2436 273.719 97.4297 293.21C120.616 312.698 149.06 324.874 179.166 328.197C209.271 331.52 239.687 325.842 266.565 311.881C293.444 297.919 315.579 276.301 330.172 249.759C344.765 223.218 351.161 192.946 348.55 162.77C345.257 124.619 327.794 89.0848 299.601 63.1709C271.409 37.257 234.532 22.8431 196.24 22.7699L196.25 22.8199Z" fill="#4A3993"/><path id="Vector_50" d="M206.94 176.92C206.7 188.39 190.64 192.29 181.7 192.3C172.76 192.31 156.7 188.38 156.44 176.92C156.32 171.55 147.97 171.53 148.09 176.92C148.47 193.44 167.74 200.64 181.7 200.64C195.66 200.64 214.93 193.44 215.31 176.92C215.43 171.54 207.09 171.54 206.96 176.92H206.94Z" fill="#4A3993"/><path id="Vector_51" d="M120.109 169.32C126.273 169.32 131.269 158.011 131.269 144.06C131.269 130.109 126.273 118.8 120.109 118.8C113.946 118.8 108.949 130.109 108.949 144.06C108.949 158.011 113.946 169.32 120.109 169.32Z" fill="#4A3993"/><path id="Vector_52" d="M251.46 169.32C257.623 169.32 262.62 158.011 262.62 144.06C262.62 130.109 257.623 118.8 251.46 118.8C245.296 118.8 240.3 130.109 240.3 144.06C240.3 158.011 245.296 169.32 251.46 169.32Z" fill="#4A3993"/><path id="Vector_53" d="M244.53 392.12C239.53 397.12 224.43 390.18 210.68 376.58C210.68 377.76 210.74 378.96 210.74 380.17C210.74 399.76 204.95 415.63 197.8 415.63C190.65 415.63 184.96 400.04 184.86 380.71C184.05 381.57 183.22 382.44 182.36 383.3C168.51 397.15 153.19 404.3 148.13 399.22C139.22 390.3 155.13 373.63 160.68 367.46C165.958 361.717 171.522 356.244 177.35 351.06C179.47 349.16 181.58 347.2 183.8 345.41C191.94 338.83 198.33 341.41 207.28 344.75C219.59 349.35 229.5 357.37 237.28 367.87C240.81 372.64 250.61 386.04 244.53 392.12Z" fill="#FDD32C"/><path id="Vector_54" d="M197.8 422.59C189 422.59 184.27 413.37 182.23 407.87C180.804 403.868 179.763 399.739 179.12 395.54C174.74 399.109 169.954 402.147 164.86 404.59C159.48 407.1 149.52 410.36 143.25 404.08C135.25 396.08 139.35 385.32 142.52 379.64C146.17 373.12 151.61 367.15 154.85 363.58L155.56 362.81C160.977 356.89 166.698 351.256 172.7 345.93L173.79 344.93C175.58 343.3 177.44 341.62 179.43 340.02C190.49 331.08 199.99 334.64 209.18 338.07L209.67 338.26C222.74 343.14 233.88 351.72 242.8 363.73C246.99 369.4 259.74 386.62 249.38 396.98C243.16 403.21 233.29 399.98 227.97 397.58C224.124 395.764 220.464 393.581 217.04 391.06C216.499 396.693 215.29 402.242 213.44 407.59C211.41 413.19 206.7 422.59 197.8 422.59ZM184.86 373.85C186.686 373.847 188.439 374.569 189.734 375.857C191.03 377.144 191.762 378.893 191.77 380.72C191.85 396.02 195.59 405.44 197.77 408.2C200.02 405.41 203.77 395.81 203.77 380.2C203.77 379.11 203.77 378.01 203.71 376.83C203.667 375.45 204.04 374.089 204.778 372.922C205.517 371.755 206.588 370.837 207.853 370.285C209.119 369.733 210.521 369.573 211.878 369.825C213.236 370.077 214.487 370.73 215.47 371.7C226.73 382.83 236.3 386.75 239.47 386.89C239.47 385.51 238.61 381.47 231.61 372.01C224.31 362.17 215.27 355.19 204.74 351.25L204.25 351.06C195.48 347.78 192.74 347.01 188.02 350.81C186.34 352.17 184.7 353.65 182.97 355.22L181.86 356.22C176.195 361.236 170.794 366.544 165.68 372.12L164.95 372.92C162.1 376.05 157.34 381.29 154.46 386.43C153.28 388.54 151.56 392.19 152.61 393.98C155.49 394.15 165.52 390.27 177.36 378.43C178.09 377.71 178.84 376.92 179.68 376.02C180.339 375.307 181.141 374.741 182.033 374.358C182.926 373.976 183.889 373.786 184.86 373.8V373.85Z" fill="#4A3993"/><path id="Vector_55" d="M105.65 225.42C117.717 225.42 127.5 220.526 127.5 214.49C127.5 208.453 117.717 203.56 105.65 203.56C93.5824 203.56 83.7998 208.453 83.7998 214.49C83.7998 220.526 93.5824 225.42 105.65 225.42Z" fill="#E06FA9"/><path id="Vector_56" d="M262.629 225.42C274.697 225.42 284.479 220.526 284.479 214.49C284.479 208.453 274.697 203.56 262.629 203.56C250.562 203.56 240.779 208.453 240.779 214.49C240.779 220.526 250.562 225.42 262.629 225.42Z" fill="#E06FA9"/><g id="Group_9" opacity="0.5"><path id="Vector_57" opacity="0.5" d="M174.499 69.1499C183.64 69.1499 191.049 64.1713 191.049 58.0299C191.049 51.8885 183.64 46.9099 174.499 46.9099C165.359 46.9099 157.949 51.8885 157.949 58.0299C157.949 64.1713 165.359 69.1499 174.499 69.1499Z" fill="white"/></g><g id="Group_10" opacity="0.5"><path id="Vector_58" opacity="0.5" d="M131.27 82.5899C136.798 82.5899 141.28 79.5813 141.28 75.8699C141.28 72.1586 136.798 69.1499 131.27 69.1499C125.741 69.1499 121.26 72.1586 121.26 75.8699C121.26 79.5813 125.741 82.5899 131.27 82.5899Z" fill="white"/></g><g id="Group_11" opacity="0.5"><path id="Vector_59" opacity="0.5" d="M308.9 71.5898C279.692 44.7241 241.231 30.1864 201.555 31.0152C161.879 31.844 124.058 47.975 95.9975 76.037C67.9368 104.099 51.8075 141.92 50.9806 181.596C50.1536 221.273 64.693 259.733 91.5601 288.94C76.2954 274.899 64.0277 257.917 55.4947 239.013C46.9617 220.11 42.3397 199.676 41.9066 178.94C41.4735 158.205 45.2382 137.596 52.9743 118.352C60.7104 99.1092 72.2583 81.6291 86.9234 66.9633C101.589 52.2975 119.068 40.7489 138.311 33.0119C157.554 25.2748 178.163 21.5092 198.898 21.9414C219.634 22.3735 240.068 26.9946 258.972 35.5267C277.876 44.0588 294.859 56.3257 308.9 71.5898V71.5898Z" fill="white"/></g><g id="Group_12" style="mix-blend-mode:multiply"><g id="Vector_60" style="mix-blend-mode:multiply"><path d="M82.25 279.66C111.44 306.657 149.95 321.302 189.703 320.524C229.456 319.746 267.364 303.605 295.475 275.486C323.586 247.367 339.717 209.455 340.484 169.702C341.251 129.949 326.595 91.4427 299.59 62.26C314.789 76.3173 326.994 93.2981 335.474 112.185C343.953 131.072 348.533 151.476 348.938 172.176C349.343 192.875 345.566 213.443 337.832 232.647C330.098 251.852 318.567 269.297 303.93 283.938C289.292 298.58 271.85 310.116 252.648 317.855C233.446 325.594 212.879 329.377 192.179 328.978C171.48 328.578 151.074 324.004 132.185 315.53C113.296 307.056 96.3115 294.855 82.25 279.66V279.66Z" fill="#FDD32C"/></g></g></g></g></g></svg>